<?xml version="1.0" encoding="UTF-8" standalone="no"?>
<svg
   xmlns:dc="http://purl.org/dc/elements/1.1/"
   xmlns:cc="http://creativecommons.org/ns#"
   xmlns:rdf="http://www.w3.org/1999/02/22-rdf-syntax-ns#"
   xmlns:svg="http://www.w3.org/2000/svg"
   xmlns="http://www.w3.org/2000/svg"
   xmlns:sodipodi="http://sodipodi.sourceforge.net/DTD/sodipodi-0.dtd"
   xmlns:inkscape="http://www.inkscape.org/namespaces/inkscape"
   width="13.878207mm"
   height="17.694847mm"
   viewBox="0 0 13.878207 17.694847"
   version="1.1"
   id="svg889"
   inkscape:version="1.0.1 (3bc2e813f5, 2020-09-07)"
   sodipodi:docname="mark-v6.svg">
  <defs
     id="defs883" />
  <sodipodi:namedview
     id="base"
     pagecolor="#ffffff"
     bordercolor="#666666"
     borderopacity="1.0"
     inkscape:pageopacity="0.0"
     inkscape:pageshadow="2"
     inkscape:zoom="1.4"
     inkscape:cx="59.1435"
     inkscape:cy="112.07824"
     inkscape:document-units="mm"
     inkscape:current-layer="layer1"
     inkscape:document-rotation="0"
     showgrid="false"
     inkscape:window-width="1920"
     inkscape:window-height="1016"
     inkscape:window-x="3840"
     inkscape:window-y="497"
     inkscape:window-maximized="1" />
  <metadata
     id="metadata886">
    <rdf:RDF>
      <cc:Work
         rdf:about="">
        <dc:format>image/svg+xml</dc:format>
        <dc:type
           rdf:resource="http://purl.org/dc/dcmitype/StillImage" />
        <dc:title></dc:title>
      </cc:Work>
    </rdf:RDF>
  </metadata>
  <g
     inkscape:label="Livello 1"
     inkscape:groupmode="layer"
     id="layer1"
     transform="translate(-79.56238,-44.267443)">
    <path
       id="path1006"
       style="display:inline;fill:#eda823;fill-opacity:1;stroke:none;stroke-width:0.648102px;stroke-linecap:butt;stroke-linejoin:miter;stroke-opacity:1"
       d="m 87.13226,44.29734 c -3.80946,-0.35184 -7.31656,2.442129 -7.55431,6.25014 -0.23781,3.807899 2.24255,7.545419 7.85602,8.294269 l 0.59156,3.12054 c 0,0 1.599651,-1.746549 3.060491,-4.11865 l 0.0174,-0.0232 7.94e-4,-0.007 c 0.98428,-1.60275 1.89638,-3.48665 2.21432,-5.31309 0.0357,-0.19528 0.0651,-0.39188 0.0864,-0.58935 7.94e-4,-0.0108 0.001,-0.0213 0.003,-0.0316 l 0.002,-0.0202 7.94e-4,-0.007 c 0.351582,-3.80947 -2.442078,-7.186629 -6.250059,-7.554299 -0.0102,-7.6e-4 -0.0184,-0.002 -0.0281,-0.002 z"
       sodipodi:nodetypes="czccccccssssscc" />
  </g>
</svg>
